%TF.GenerationSoftware,KiCad,Pcbnew,10.0.4*%
%TF.CreationDate,2026-07-14T04:04:19+05:30*%
%TF.ProjectId,mcpcb_11led,6d637063-625f-4313-916c-65642e6b6963,rev?*%
%TF.SameCoordinates,Original*%
%TF.FileFunction,Soldermask,Top*%
%TF.FilePolarity,Negative*%
%FSLAX46Y46*%
G04 Gerber Fmt 4.6, Leading zero omitted, Abs format (unit mm)*
G04 Created by KiCad (PCBNEW 10.0.4) date 2026-07-14 04:04:19*
%MOMM*%
%LPD*%
G01*
G04 APERTURE LIST*
G04 APERTURE END LIST*
G36*
X5118894Y-43355086D02*
G01*
X5129458Y-43355086D01*
X5181477Y-43363325D01*
X5321877Y-43381809D01*
X5356138Y-43390989D01*
X5385185Y-43395590D01*
X5441045Y-43413740D01*
X5530338Y-43437666D01*
X5587309Y-43461264D01*
X5631428Y-43475599D01*
X5672755Y-43496656D01*
X5729733Y-43520257D01*
X5809803Y-43566485D01*
X5862123Y-43593144D01*
X5885909Y-43610425D01*
X5916624Y-43628159D01*
X6028975Y-43714369D01*
X6071589Y-43745330D01*
X6079058Y-43752799D01*
X6087848Y-43759544D01*
X6240455Y-43912151D01*
X6247199Y-43920940D01*
X6254670Y-43928411D01*
X6285634Y-43971030D01*
X6371840Y-44083375D01*
X6389572Y-44114087D01*
X6406856Y-44137877D01*
X6433517Y-44190203D01*
X6479742Y-44270266D01*
X6503340Y-44327237D01*
X6524401Y-44368572D01*
X6538738Y-44412696D01*
X6562333Y-44469661D01*
X6586255Y-44558941D01*
X6604410Y-44614815D01*
X6609011Y-44643867D01*
X6618190Y-44678122D01*
X6636673Y-44818514D01*
X6644914Y-44870542D01*
X6644914Y-44881105D01*
X6646360Y-44892089D01*
X6646360Y-45107910D01*
X6644914Y-45118893D01*
X6644914Y-45129458D01*
X6636672Y-45181490D01*
X6618190Y-45321877D01*
X6609011Y-45356129D01*
X6604410Y-45385185D01*
X6586254Y-45441063D01*
X6562333Y-45530338D01*
X6538739Y-45587298D01*
X6524401Y-45631428D01*
X6503337Y-45672766D01*
X6479742Y-45729733D01*
X6433521Y-45809788D01*
X6406856Y-45862123D01*
X6389569Y-45885916D01*
X6371840Y-45916624D01*
X6285648Y-46028950D01*
X6254670Y-46071589D01*
X6247195Y-46079063D01*
X6240455Y-46087848D01*
X6087848Y-46240455D01*
X6079063Y-46247195D01*
X6071589Y-46254670D01*
X6028950Y-46285648D01*
X5916624Y-46371840D01*
X5885916Y-46389569D01*
X5862123Y-46406856D01*
X5809788Y-46433521D01*
X5729733Y-46479742D01*
X5672766Y-46503337D01*
X5631428Y-46524401D01*
X5587298Y-46538739D01*
X5530338Y-46562333D01*
X5441063Y-46586254D01*
X5385185Y-46604410D01*
X5356129Y-46609011D01*
X5321877Y-46618190D01*
X5181490Y-46636672D01*
X5129458Y-46644914D01*
X5118893Y-46644914D01*
X5107910Y-46646360D01*
X4892090Y-46646360D01*
X4881107Y-46644914D01*
X4870542Y-46644914D01*
X4818511Y-46636672D01*
X4678122Y-46618190D01*
X4643867Y-46609011D01*
X4614815Y-46604410D01*
X4558941Y-46586255D01*
X4469661Y-46562333D01*
X4412696Y-46538738D01*
X4368572Y-46524401D01*
X4327237Y-46503340D01*
X4270266Y-46479742D01*
X4190203Y-46433517D01*
X4137877Y-46406856D01*
X4114087Y-46389572D01*
X4083375Y-46371840D01*
X3971030Y-46285634D01*
X3928411Y-46254670D01*
X3920940Y-46247199D01*
X3912151Y-46240455D01*
X3759544Y-46087848D01*
X3752799Y-46079058D01*
X3745330Y-46071589D01*
X3714369Y-46028975D01*
X3628159Y-45916624D01*
X3610425Y-45885909D01*
X3593144Y-45862123D01*
X3566485Y-45809803D01*
X3520257Y-45729733D01*
X3496656Y-45672755D01*
X3475599Y-45631428D01*
X3461264Y-45587309D01*
X3437666Y-45530338D01*
X3413740Y-45441045D01*
X3395590Y-45385185D01*
X3390989Y-45356138D01*
X3381809Y-45321877D01*
X3363325Y-45181477D01*
X3355086Y-45129458D01*
X3355086Y-45118893D01*
X3353640Y-45107910D01*
X3353640Y-44892089D01*
X3355086Y-44881105D01*
X3355086Y-44870542D01*
X3363324Y-44818527D01*
X3381809Y-44678122D01*
X3390989Y-44643858D01*
X3395590Y-44614815D01*
X3413738Y-44558959D01*
X3437666Y-44469661D01*
X3461265Y-44412685D01*
X3475599Y-44368572D01*
X3496654Y-44327248D01*
X3520257Y-44270266D01*
X3566489Y-44190188D01*
X3593144Y-44137877D01*
X3610423Y-44114094D01*
X3628159Y-44083375D01*
X3714383Y-43971005D01*
X3745330Y-43928411D01*
X3752796Y-43920944D01*
X3759544Y-43912151D01*
X3912151Y-43759544D01*
X3920944Y-43752796D01*
X3928411Y-43745330D01*
X3971005Y-43714383D01*
X4083375Y-43628159D01*
X4114094Y-43610423D01*
X4137877Y-43593144D01*
X4190188Y-43566489D01*
X4270266Y-43520257D01*
X4327248Y-43496654D01*
X4368572Y-43475599D01*
X4412685Y-43461265D01*
X4469661Y-43437666D01*
X4558959Y-43413738D01*
X4614815Y-43395590D01*
X4643858Y-43390989D01*
X4678122Y-43381809D01*
X4818524Y-43363324D01*
X4870542Y-43355086D01*
X4881106Y-43355086D01*
X4892090Y-43353640D01*
X5107910Y-43353640D01*
X5118894Y-43355086D01*
G37*
G36*
X45291807Y-42784538D02*
G01*
X45478354Y-42845151D01*
X45653123Y-42934200D01*
X45811810Y-43049493D01*
X45950507Y-43188190D01*
X46065800Y-43346877D01*
X46154849Y-43521646D01*
X46215462Y-43708193D01*
X46246147Y-43901926D01*
X46246147Y-43911102D01*
X46250662Y-43924403D01*
X46254670Y-43928411D01*
X46285601Y-43970984D01*
X46371838Y-44083370D01*
X46389575Y-44114092D01*
X46406856Y-44137877D01*
X46433514Y-44190197D01*
X46479742Y-44270266D01*
X46503340Y-44327237D01*
X46524401Y-44368572D01*
X46538738Y-44412696D01*
X46562333Y-44469661D01*
X46586255Y-44558941D01*
X46604410Y-44614815D01*
X46609011Y-44643867D01*
X46618190Y-44678122D01*
X46636673Y-44818514D01*
X46644914Y-44870542D01*
X46644914Y-44881105D01*
X46646360Y-44892089D01*
X46646360Y-45107910D01*
X46644914Y-45118893D01*
X46644914Y-45129458D01*
X46636672Y-45181490D01*
X46618190Y-45321877D01*
X46609011Y-45356129D01*
X46604410Y-45385185D01*
X46586254Y-45441063D01*
X46562333Y-45530338D01*
X46538739Y-45587298D01*
X46524401Y-45631428D01*
X46503337Y-45672766D01*
X46479742Y-45729733D01*
X46433521Y-45809788D01*
X46406856Y-45862123D01*
X46389569Y-45885916D01*
X46371840Y-45916624D01*
X46285648Y-46028950D01*
X46254670Y-46071589D01*
X46247195Y-46079063D01*
X46240455Y-46087848D01*
X46087848Y-46240455D01*
X46079063Y-46247195D01*
X46071589Y-46254670D01*
X46028950Y-46285648D01*
X45916624Y-46371840D01*
X45885916Y-46389569D01*
X45862123Y-46406856D01*
X45809788Y-46433521D01*
X45729733Y-46479742D01*
X45672766Y-46503337D01*
X45631428Y-46524401D01*
X45587298Y-46538739D01*
X45530338Y-46562333D01*
X45441063Y-46586254D01*
X45385185Y-46604410D01*
X45356129Y-46609011D01*
X45321877Y-46618190D01*
X45181490Y-46636672D01*
X45129458Y-46644914D01*
X45118893Y-46644914D01*
X45107910Y-46646360D01*
X44892090Y-46646360D01*
X44881107Y-46644914D01*
X44870542Y-46644914D01*
X44818511Y-46636672D01*
X44678122Y-46618190D01*
X44643867Y-46609011D01*
X44614815Y-46604410D01*
X44558941Y-46586255D01*
X44469661Y-46562333D01*
X44412696Y-46538738D01*
X44368572Y-46524401D01*
X44327237Y-46503340D01*
X44270266Y-46479742D01*
X44190203Y-46433517D01*
X44137877Y-46406856D01*
X44114087Y-46389572D01*
X44083375Y-46371840D01*
X43971030Y-46285634D01*
X43928411Y-46254670D01*
X43920940Y-46247199D01*
X43912151Y-46240455D01*
X43759544Y-46087848D01*
X43752799Y-46079058D01*
X43745330Y-46071589D01*
X43714369Y-46028975D01*
X43628159Y-45916624D01*
X43610425Y-45885909D01*
X43593144Y-45862123D01*
X43566485Y-45809803D01*
X43520257Y-45729733D01*
X43496656Y-45672755D01*
X43475599Y-45631428D01*
X43461264Y-45587309D01*
X43437666Y-45530338D01*
X43413740Y-45441045D01*
X43395590Y-45385185D01*
X43390989Y-45356138D01*
X43381809Y-45321877D01*
X43363325Y-45181477D01*
X43355086Y-45129458D01*
X43355086Y-45118893D01*
X43353640Y-45107910D01*
X43353640Y-44892089D01*
X43355086Y-44881105D01*
X43355086Y-44870542D01*
X43363324Y-44818527D01*
X43381809Y-44678122D01*
X43390989Y-44643858D01*
X43395590Y-44614815D01*
X43413738Y-44558959D01*
X43437666Y-44469661D01*
X43461265Y-44412685D01*
X43475599Y-44368572D01*
X43496654Y-44327248D01*
X43520257Y-44270266D01*
X43566492Y-44190182D01*
X43593144Y-44137877D01*
X43610419Y-44114099D01*
X43628161Y-44083370D01*
X43714403Y-43970977D01*
X43745330Y-43928411D01*
X43749337Y-43924403D01*
X43753853Y-43911102D01*
X43753853Y-43901926D01*
X43784538Y-43708193D01*
X43845151Y-43521646D01*
X43934200Y-43346877D01*
X44049493Y-43188190D01*
X44188190Y-43049493D01*
X44346877Y-42934200D01*
X44521646Y-42845151D01*
X44708193Y-42784538D01*
X44901926Y-42753853D01*
X45098074Y-42753853D01*
X45291807Y-42784538D01*
G37*
G36*
X9894134Y-35278806D02*
G01*
X9910355Y-35289645D01*
X9921194Y-35305866D01*
X9925000Y-35325000D01*
X9925000Y-36675000D01*
X9921194Y-36694134D01*
X9910355Y-36710355D01*
X9894134Y-36721194D01*
X9875000Y-36725000D01*
X9325000Y-36725000D01*
X9305866Y-36721194D01*
X9289645Y-36710355D01*
X9278806Y-36694134D01*
X9275000Y-36675000D01*
X9275000Y-35325000D01*
X9278806Y-35305866D01*
X9289645Y-35289645D01*
X9305866Y-35278806D01*
X9325000Y-35275000D01*
X9875000Y-35275000D01*
X9894134Y-35278806D01*
G37*
G36*
X10694134Y-35278806D02*
G01*
X10710355Y-35289645D01*
X10721194Y-35305866D01*
X10725000Y-35325000D01*
X10725000Y-36675000D01*
X10721194Y-36694134D01*
X10710355Y-36710355D01*
X10694134Y-36721194D01*
X10675000Y-36725000D01*
X10125000Y-36725000D01*
X10105866Y-36721194D01*
X10089645Y-36710355D01*
X10078806Y-36694134D01*
X10075000Y-36675000D01*
X10075000Y-35325000D01*
X10078806Y-35305866D01*
X10089645Y-35289645D01*
X10105866Y-35278806D01*
X10125000Y-35275000D01*
X10675000Y-35275000D01*
X10694134Y-35278806D01*
G37*
G36*
X19894134Y-35278806D02*
G01*
X19910355Y-35289645D01*
X19921194Y-35305866D01*
X19925000Y-35325000D01*
X19925000Y-36675000D01*
X19921194Y-36694134D01*
X19910355Y-36710355D01*
X19894134Y-36721194D01*
X19875000Y-36725000D01*
X19325000Y-36725000D01*
X19305866Y-36721194D01*
X19289645Y-36710355D01*
X19278806Y-36694134D01*
X19275000Y-36675000D01*
X19275000Y-35325000D01*
X19278806Y-35305866D01*
X19289645Y-35289645D01*
X19305866Y-35278806D01*
X19325000Y-35275000D01*
X19875000Y-35275000D01*
X19894134Y-35278806D01*
G37*
G36*
X20694134Y-35278806D02*
G01*
X20710355Y-35289645D01*
X20721194Y-35305866D01*
X20725000Y-35325000D01*
X20725000Y-36675000D01*
X20721194Y-36694134D01*
X20710355Y-36710355D01*
X20694134Y-36721194D01*
X20675000Y-36725000D01*
X20125000Y-36725000D01*
X20105866Y-36721194D01*
X20089645Y-36710355D01*
X20078806Y-36694134D01*
X20075000Y-36675000D01*
X20075000Y-35325000D01*
X20078806Y-35305866D01*
X20089645Y-35289645D01*
X20105866Y-35278806D01*
X20125000Y-35275000D01*
X20675000Y-35275000D01*
X20694134Y-35278806D01*
G37*
G36*
X29894134Y-35278806D02*
G01*
X29910355Y-35289645D01*
X29921194Y-35305866D01*
X29925000Y-35325000D01*
X29925000Y-36675000D01*
X29921194Y-36694134D01*
X29910355Y-36710355D01*
X29894134Y-36721194D01*
X29875000Y-36725000D01*
X29325000Y-36725000D01*
X29305866Y-36721194D01*
X29289645Y-36710355D01*
X29278806Y-36694134D01*
X29275000Y-36675000D01*
X29275000Y-35325000D01*
X29278806Y-35305866D01*
X29289645Y-35289645D01*
X29305866Y-35278806D01*
X29325000Y-35275000D01*
X29875000Y-35275000D01*
X29894134Y-35278806D01*
G37*
G36*
X30694134Y-35278806D02*
G01*
X30710355Y-35289645D01*
X30721194Y-35305866D01*
X30725000Y-35325000D01*
X30725000Y-36675000D01*
X30721194Y-36694134D01*
X30710355Y-36710355D01*
X30694134Y-36721194D01*
X30675000Y-36725000D01*
X30125000Y-36725000D01*
X30105866Y-36721194D01*
X30089645Y-36710355D01*
X30078806Y-36694134D01*
X30075000Y-36675000D01*
X30075000Y-35325000D01*
X30078806Y-35305866D01*
X30089645Y-35289645D01*
X30105866Y-35278806D01*
X30125000Y-35275000D01*
X30675000Y-35275000D01*
X30694134Y-35278806D01*
G37*
G36*
X39894134Y-35278806D02*
G01*
X39910355Y-35289645D01*
X39921194Y-35305866D01*
X39925000Y-35325000D01*
X39925000Y-36675000D01*
X39921194Y-36694134D01*
X39910355Y-36710355D01*
X39894134Y-36721194D01*
X39875000Y-36725000D01*
X39325000Y-36725000D01*
X39305866Y-36721194D01*
X39289645Y-36710355D01*
X39278806Y-36694134D01*
X39275000Y-36675000D01*
X39275000Y-35325000D01*
X39278806Y-35305866D01*
X39289645Y-35289645D01*
X39305866Y-35278806D01*
X39325000Y-35275000D01*
X39875000Y-35275000D01*
X39894134Y-35278806D01*
G37*
G36*
X40694134Y-35278806D02*
G01*
X40710355Y-35289645D01*
X40721194Y-35305866D01*
X40725000Y-35325000D01*
X40725000Y-36675000D01*
X40721194Y-36694134D01*
X40710355Y-36710355D01*
X40694134Y-36721194D01*
X40675000Y-36725000D01*
X40125000Y-36725000D01*
X40105866Y-36721194D01*
X40089645Y-36710355D01*
X40078806Y-36694134D01*
X40075000Y-36675000D01*
X40075000Y-35325000D01*
X40078806Y-35305866D01*
X40089645Y-35289645D01*
X40105866Y-35278806D01*
X40125000Y-35275000D01*
X40675000Y-35275000D01*
X40694134Y-35278806D01*
G37*
G36*
X9894134Y-24278806D02*
G01*
X9910355Y-24289645D01*
X9921194Y-24305866D01*
X9925000Y-24325000D01*
X9925000Y-25675000D01*
X9921194Y-25694134D01*
X9910355Y-25710355D01*
X9894134Y-25721194D01*
X9875000Y-25725000D01*
X9325000Y-25725000D01*
X9305866Y-25721194D01*
X9289645Y-25710355D01*
X9278806Y-25694134D01*
X9275000Y-25675000D01*
X9275000Y-24325000D01*
X9278806Y-24305866D01*
X9289645Y-24289645D01*
X9305866Y-24278806D01*
X9325000Y-24275000D01*
X9875000Y-24275000D01*
X9894134Y-24278806D01*
G37*
G36*
X10694134Y-24278806D02*
G01*
X10710355Y-24289645D01*
X10721194Y-24305866D01*
X10725000Y-24325000D01*
X10725000Y-25675000D01*
X10721194Y-25694134D01*
X10710355Y-25710355D01*
X10694134Y-25721194D01*
X10675000Y-25725000D01*
X10125000Y-25725000D01*
X10105866Y-25721194D01*
X10089645Y-25710355D01*
X10078806Y-25694134D01*
X10075000Y-25675000D01*
X10075000Y-24325000D01*
X10078806Y-24305866D01*
X10089645Y-24289645D01*
X10105866Y-24278806D01*
X10125000Y-24275000D01*
X10675000Y-24275000D01*
X10694134Y-24278806D01*
G37*
G36*
X19894134Y-24278806D02*
G01*
X19910355Y-24289645D01*
X19921194Y-24305866D01*
X19925000Y-24325000D01*
X19925000Y-25675000D01*
X19921194Y-25694134D01*
X19910355Y-25710355D01*
X19894134Y-25721194D01*
X19875000Y-25725000D01*
X19325000Y-25725000D01*
X19305866Y-25721194D01*
X19289645Y-25710355D01*
X19278806Y-25694134D01*
X19275000Y-25675000D01*
X19275000Y-24325000D01*
X19278806Y-24305866D01*
X19289645Y-24289645D01*
X19305866Y-24278806D01*
X19325000Y-24275000D01*
X19875000Y-24275000D01*
X19894134Y-24278806D01*
G37*
G36*
X20694134Y-24278806D02*
G01*
X20710355Y-24289645D01*
X20721194Y-24305866D01*
X20725000Y-24325000D01*
X20725000Y-25675000D01*
X20721194Y-25694134D01*
X20710355Y-25710355D01*
X20694134Y-25721194D01*
X20675000Y-25725000D01*
X20125000Y-25725000D01*
X20105866Y-25721194D01*
X20089645Y-25710355D01*
X20078806Y-25694134D01*
X20075000Y-25675000D01*
X20075000Y-24325000D01*
X20078806Y-24305866D01*
X20089645Y-24289645D01*
X20105866Y-24278806D01*
X20125000Y-24275000D01*
X20675000Y-24275000D01*
X20694134Y-24278806D01*
G37*
G36*
X29894134Y-24278806D02*
G01*
X29910355Y-24289645D01*
X29921194Y-24305866D01*
X29925000Y-24325000D01*
X29925000Y-25675000D01*
X29921194Y-25694134D01*
X29910355Y-25710355D01*
X29894134Y-25721194D01*
X29875000Y-25725000D01*
X29325000Y-25725000D01*
X29305866Y-25721194D01*
X29289645Y-25710355D01*
X29278806Y-25694134D01*
X29275000Y-25675000D01*
X29275000Y-24325000D01*
X29278806Y-24305866D01*
X29289645Y-24289645D01*
X29305866Y-24278806D01*
X29325000Y-24275000D01*
X29875000Y-24275000D01*
X29894134Y-24278806D01*
G37*
G36*
X30694134Y-24278806D02*
G01*
X30710355Y-24289645D01*
X30721194Y-24305866D01*
X30725000Y-24325000D01*
X30725000Y-25675000D01*
X30721194Y-25694134D01*
X30710355Y-25710355D01*
X30694134Y-25721194D01*
X30675000Y-25725000D01*
X30125000Y-25725000D01*
X30105866Y-25721194D01*
X30089645Y-25710355D01*
X30078806Y-25694134D01*
X30075000Y-25675000D01*
X30075000Y-24325000D01*
X30078806Y-24305866D01*
X30089645Y-24289645D01*
X30105866Y-24278806D01*
X30125000Y-24275000D01*
X30675000Y-24275000D01*
X30694134Y-24278806D01*
G37*
G36*
X39894134Y-24278806D02*
G01*
X39910355Y-24289645D01*
X39921194Y-24305866D01*
X39925000Y-24325000D01*
X39925000Y-25675000D01*
X39921194Y-25694134D01*
X39910355Y-25710355D01*
X39894134Y-25721194D01*
X39875000Y-25725000D01*
X39325000Y-25725000D01*
X39305866Y-25721194D01*
X39289645Y-25710355D01*
X39278806Y-25694134D01*
X39275000Y-25675000D01*
X39275000Y-24325000D01*
X39278806Y-24305866D01*
X39289645Y-24289645D01*
X39305866Y-24278806D01*
X39325000Y-24275000D01*
X39875000Y-24275000D01*
X39894134Y-24278806D01*
G37*
G36*
X40694134Y-24278806D02*
G01*
X40710355Y-24289645D01*
X40721194Y-24305866D01*
X40725000Y-24325000D01*
X40725000Y-25675000D01*
X40721194Y-25694134D01*
X40710355Y-25710355D01*
X40694134Y-25721194D01*
X40675000Y-25725000D01*
X40125000Y-25725000D01*
X40105866Y-25721194D01*
X40089645Y-25710355D01*
X40078806Y-25694134D01*
X40075000Y-25675000D01*
X40075000Y-24325000D01*
X40078806Y-24305866D01*
X40089645Y-24289645D01*
X40105866Y-24278806D01*
X40125000Y-24275000D01*
X40675000Y-24275000D01*
X40694134Y-24278806D01*
G37*
G36*
X5291807Y-12784538D02*
G01*
X5478354Y-12845151D01*
X5653123Y-12934200D01*
X5811810Y-13049493D01*
X5950507Y-13188190D01*
X6065800Y-13346877D01*
X6154849Y-13521646D01*
X6215462Y-13708193D01*
X6246147Y-13901926D01*
X6246147Y-14098074D01*
X6215462Y-14291807D01*
X6154849Y-14478354D01*
X6065800Y-14653123D01*
X5950507Y-14811810D01*
X5811810Y-14950507D01*
X5653123Y-15065800D01*
X5478354Y-15154849D01*
X5291807Y-15215462D01*
X5098074Y-15246147D01*
X4901926Y-15246147D01*
X4708193Y-15215462D01*
X4521646Y-15154849D01*
X4346877Y-15065800D01*
X4188190Y-14950507D01*
X4049493Y-14811810D01*
X3934200Y-14653123D01*
X3845151Y-14478354D01*
X3784538Y-14291807D01*
X3753853Y-14098074D01*
X3753853Y-13901926D01*
X3784538Y-13708193D01*
X3845151Y-13521646D01*
X3934200Y-13346877D01*
X4049493Y-13188190D01*
X4188190Y-13049493D01*
X4346877Y-12934200D01*
X4521646Y-12845151D01*
X4708193Y-12784538D01*
X4901926Y-12753853D01*
X5098074Y-12753853D01*
X5291807Y-12784538D01*
G37*
G36*
X14894134Y-13278806D02*
G01*
X14910355Y-13289645D01*
X14921194Y-13305866D01*
X14925000Y-13325000D01*
X14925000Y-14675000D01*
X14921194Y-14694134D01*
X14910355Y-14710355D01*
X14894134Y-14721194D01*
X14875000Y-14725000D01*
X14325000Y-14725000D01*
X14305866Y-14721194D01*
X14289645Y-14710355D01*
X14278806Y-14694134D01*
X14275000Y-14675000D01*
X14275000Y-13325000D01*
X14278806Y-13305866D01*
X14289645Y-13289645D01*
X14305866Y-13278806D01*
X14325000Y-13275000D01*
X14875000Y-13275000D01*
X14894134Y-13278806D01*
G37*
G36*
X15694134Y-13278806D02*
G01*
X15710355Y-13289645D01*
X15721194Y-13305866D01*
X15725000Y-13325000D01*
X15725000Y-14675000D01*
X15721194Y-14694134D01*
X15710355Y-14710355D01*
X15694134Y-14721194D01*
X15675000Y-14725000D01*
X15125000Y-14725000D01*
X15105866Y-14721194D01*
X15089645Y-14710355D01*
X15078806Y-14694134D01*
X15075000Y-14675000D01*
X15075000Y-13325000D01*
X15078806Y-13305866D01*
X15089645Y-13289645D01*
X15105866Y-13278806D01*
X15125000Y-13275000D01*
X15675000Y-13275000D01*
X15694134Y-13278806D01*
G37*
G36*
X24894134Y-13278806D02*
G01*
X24910355Y-13289645D01*
X24921194Y-13305866D01*
X24925000Y-13325000D01*
X24925000Y-14675000D01*
X24921194Y-14694134D01*
X24910355Y-14710355D01*
X24894134Y-14721194D01*
X24875000Y-14725000D01*
X24325000Y-14725000D01*
X24305866Y-14721194D01*
X24289645Y-14710355D01*
X24278806Y-14694134D01*
X24275000Y-14675000D01*
X24275000Y-13325000D01*
X24278806Y-13305866D01*
X24289645Y-13289645D01*
X24305866Y-13278806D01*
X24325000Y-13275000D01*
X24875000Y-13275000D01*
X24894134Y-13278806D01*
G37*
G36*
X25694134Y-13278806D02*
G01*
X25710355Y-13289645D01*
X25721194Y-13305866D01*
X25725000Y-13325000D01*
X25725000Y-14675000D01*
X25721194Y-14694134D01*
X25710355Y-14710355D01*
X25694134Y-14721194D01*
X25675000Y-14725000D01*
X25125000Y-14725000D01*
X25105866Y-14721194D01*
X25089645Y-14710355D01*
X25078806Y-14694134D01*
X25075000Y-14675000D01*
X25075000Y-13325000D01*
X25078806Y-13305866D01*
X25089645Y-13289645D01*
X25105866Y-13278806D01*
X25125000Y-13275000D01*
X25675000Y-13275000D01*
X25694134Y-13278806D01*
G37*
G36*
X34894134Y-13278806D02*
G01*
X34910355Y-13289645D01*
X34921194Y-13305866D01*
X34925000Y-13325000D01*
X34925000Y-14675000D01*
X34921194Y-14694134D01*
X34910355Y-14710355D01*
X34894134Y-14721194D01*
X34875000Y-14725000D01*
X34325000Y-14725000D01*
X34305866Y-14721194D01*
X34289645Y-14710355D01*
X34278806Y-14694134D01*
X34275000Y-14675000D01*
X34275000Y-13325000D01*
X34278806Y-13305866D01*
X34289645Y-13289645D01*
X34305866Y-13278806D01*
X34325000Y-13275000D01*
X34875000Y-13275000D01*
X34894134Y-13278806D01*
G37*
G36*
X35694134Y-13278806D02*
G01*
X35710355Y-13289645D01*
X35721194Y-13305866D01*
X35725000Y-13325000D01*
X35725000Y-14675000D01*
X35721194Y-14694134D01*
X35710355Y-14710355D01*
X35694134Y-14721194D01*
X35675000Y-14725000D01*
X35125000Y-14725000D01*
X35105866Y-14721194D01*
X35089645Y-14710355D01*
X35078806Y-14694134D01*
X35075000Y-14675000D01*
X35075000Y-13325000D01*
X35078806Y-13305866D01*
X35089645Y-13289645D01*
X35105866Y-13278806D01*
X35125000Y-13275000D01*
X35675000Y-13275000D01*
X35694134Y-13278806D01*
G37*
G36*
X5118894Y-3355086D02*
G01*
X5129458Y-3355086D01*
X5181477Y-3363325D01*
X5321877Y-3381809D01*
X5356138Y-3390989D01*
X5385185Y-3395590D01*
X5441045Y-3413740D01*
X5530338Y-3437666D01*
X5587309Y-3461264D01*
X5631428Y-3475599D01*
X5672755Y-3496656D01*
X5729733Y-3520257D01*
X5809803Y-3566485D01*
X5862123Y-3593144D01*
X5885909Y-3610425D01*
X5916624Y-3628159D01*
X6028975Y-3714369D01*
X6071589Y-3745330D01*
X6079058Y-3752799D01*
X6087848Y-3759544D01*
X6240455Y-3912151D01*
X6247199Y-3920940D01*
X6254670Y-3928411D01*
X6285634Y-3971030D01*
X6371840Y-4083375D01*
X6389572Y-4114087D01*
X6406856Y-4137877D01*
X6433517Y-4190203D01*
X6479742Y-4270266D01*
X6503340Y-4327237D01*
X6524401Y-4368572D01*
X6538738Y-4412696D01*
X6562333Y-4469661D01*
X6586255Y-4558941D01*
X6604410Y-4614815D01*
X6609011Y-4643867D01*
X6618190Y-4678122D01*
X6636673Y-4818514D01*
X6644914Y-4870542D01*
X6644914Y-4881105D01*
X6646360Y-4892089D01*
X6646360Y-5107910D01*
X6644914Y-5118893D01*
X6644914Y-5129458D01*
X6636672Y-5181490D01*
X6618190Y-5321877D01*
X6609011Y-5356129D01*
X6604410Y-5385185D01*
X6586254Y-5441063D01*
X6562333Y-5530338D01*
X6538739Y-5587298D01*
X6524401Y-5631428D01*
X6503337Y-5672766D01*
X6479742Y-5729733D01*
X6433521Y-5809788D01*
X6406856Y-5862123D01*
X6389569Y-5885916D01*
X6371840Y-5916624D01*
X6285648Y-6028950D01*
X6254670Y-6071589D01*
X6247195Y-6079063D01*
X6240455Y-6087848D01*
X6087848Y-6240455D01*
X6079063Y-6247195D01*
X6071589Y-6254670D01*
X6028950Y-6285648D01*
X5916624Y-6371840D01*
X5885916Y-6389569D01*
X5862123Y-6406856D01*
X5809788Y-6433521D01*
X5729733Y-6479742D01*
X5672766Y-6503337D01*
X5631428Y-6524401D01*
X5587298Y-6538739D01*
X5530338Y-6562333D01*
X5441063Y-6586254D01*
X5385185Y-6604410D01*
X5356129Y-6609011D01*
X5321877Y-6618190D01*
X5181490Y-6636672D01*
X5129458Y-6644914D01*
X5118893Y-6644914D01*
X5107910Y-6646360D01*
X4892090Y-6646360D01*
X4881107Y-6644914D01*
X4870542Y-6644914D01*
X4818511Y-6636672D01*
X4678122Y-6618190D01*
X4643867Y-6609011D01*
X4614815Y-6604410D01*
X4558941Y-6586255D01*
X4469661Y-6562333D01*
X4412696Y-6538738D01*
X4368572Y-6524401D01*
X4327237Y-6503340D01*
X4270266Y-6479742D01*
X4190203Y-6433517D01*
X4137877Y-6406856D01*
X4114087Y-6389572D01*
X4083375Y-6371840D01*
X3971030Y-6285634D01*
X3928411Y-6254670D01*
X3920940Y-6247199D01*
X3912151Y-6240455D01*
X3759544Y-6087848D01*
X3752799Y-6079058D01*
X3745330Y-6071589D01*
X3714369Y-6028975D01*
X3628159Y-5916624D01*
X3610425Y-5885909D01*
X3593144Y-5862123D01*
X3566485Y-5809803D01*
X3520257Y-5729733D01*
X3496656Y-5672755D01*
X3475599Y-5631428D01*
X3461264Y-5587309D01*
X3437666Y-5530338D01*
X3413740Y-5441045D01*
X3395590Y-5385185D01*
X3390989Y-5356138D01*
X3381809Y-5321877D01*
X3363325Y-5181477D01*
X3355086Y-5129458D01*
X3355086Y-5118893D01*
X3353640Y-5107910D01*
X3353640Y-4892089D01*
X3355086Y-4881105D01*
X3355086Y-4870542D01*
X3363324Y-4818527D01*
X3381809Y-4678122D01*
X3390989Y-4643858D01*
X3395590Y-4614815D01*
X3413738Y-4558959D01*
X3437666Y-4469661D01*
X3461265Y-4412685D01*
X3475599Y-4368572D01*
X3496654Y-4327248D01*
X3520257Y-4270266D01*
X3566489Y-4190188D01*
X3593144Y-4137877D01*
X3610423Y-4114094D01*
X3628159Y-4083375D01*
X3714383Y-3971005D01*
X3745330Y-3928411D01*
X3752796Y-3920944D01*
X3759544Y-3912151D01*
X3912151Y-3759544D01*
X3920944Y-3752796D01*
X3928411Y-3745330D01*
X3971005Y-3714383D01*
X4083375Y-3628159D01*
X4114094Y-3610423D01*
X4137877Y-3593144D01*
X4190188Y-3566489D01*
X4270266Y-3520257D01*
X4327248Y-3496654D01*
X4368572Y-3475599D01*
X4412685Y-3461265D01*
X4469661Y-3437666D01*
X4558959Y-3413738D01*
X4614815Y-3395590D01*
X4643858Y-3390989D01*
X4678122Y-3381809D01*
X4818524Y-3363324D01*
X4870542Y-3355086D01*
X4881106Y-3355086D01*
X4892090Y-3353640D01*
X5107910Y-3353640D01*
X5118894Y-3355086D01*
G37*
G36*
X45118894Y-3355086D02*
G01*
X45129458Y-3355086D01*
X45181477Y-3363325D01*
X45321877Y-3381809D01*
X45356138Y-3390989D01*
X45385185Y-3395590D01*
X45441045Y-3413740D01*
X45530338Y-3437666D01*
X45587309Y-3461264D01*
X45631428Y-3475599D01*
X45672755Y-3496656D01*
X45729733Y-3520257D01*
X45809803Y-3566485D01*
X45862123Y-3593144D01*
X45885909Y-3610425D01*
X45916624Y-3628159D01*
X46028975Y-3714369D01*
X46071589Y-3745330D01*
X46079058Y-3752799D01*
X46087848Y-3759544D01*
X46240455Y-3912151D01*
X46247199Y-3920940D01*
X46254670Y-3928411D01*
X46285634Y-3971030D01*
X46371840Y-4083375D01*
X46389572Y-4114087D01*
X46406856Y-4137877D01*
X46433517Y-4190203D01*
X46479742Y-4270266D01*
X46503340Y-4327237D01*
X46524401Y-4368572D01*
X46538738Y-4412696D01*
X46562333Y-4469661D01*
X46586255Y-4558941D01*
X46604410Y-4614815D01*
X46609011Y-4643867D01*
X46618190Y-4678122D01*
X46636673Y-4818514D01*
X46644914Y-4870542D01*
X46644914Y-4881105D01*
X46646360Y-4892089D01*
X46646360Y-5107910D01*
X46644914Y-5118893D01*
X46644914Y-5129458D01*
X46636672Y-5181490D01*
X46618190Y-5321877D01*
X46609011Y-5356129D01*
X46604410Y-5385185D01*
X46586254Y-5441063D01*
X46562333Y-5530338D01*
X46538739Y-5587298D01*
X46524401Y-5631428D01*
X46503337Y-5672766D01*
X46479742Y-5729733D01*
X46433521Y-5809788D01*
X46406856Y-5862123D01*
X46389569Y-5885916D01*
X46371840Y-5916624D01*
X46285648Y-6028950D01*
X46254670Y-6071589D01*
X46247195Y-6079063D01*
X46240455Y-6087848D01*
X46087848Y-6240455D01*
X46079063Y-6247195D01*
X46071589Y-6254670D01*
X46028950Y-6285648D01*
X45916624Y-6371840D01*
X45885916Y-6389569D01*
X45862123Y-6406856D01*
X45809788Y-6433521D01*
X45729733Y-6479742D01*
X45672766Y-6503337D01*
X45631428Y-6524401D01*
X45587298Y-6538739D01*
X45530338Y-6562333D01*
X45441063Y-6586254D01*
X45385185Y-6604410D01*
X45356129Y-6609011D01*
X45321877Y-6618190D01*
X45181490Y-6636672D01*
X45129458Y-6644914D01*
X45118893Y-6644914D01*
X45107910Y-6646360D01*
X44892090Y-6646360D01*
X44881107Y-6644914D01*
X44870542Y-6644914D01*
X44818511Y-6636672D01*
X44678122Y-6618190D01*
X44643867Y-6609011D01*
X44614815Y-6604410D01*
X44558941Y-6586255D01*
X44469661Y-6562333D01*
X44412696Y-6538738D01*
X44368572Y-6524401D01*
X44327237Y-6503340D01*
X44270266Y-6479742D01*
X44190203Y-6433517D01*
X44137877Y-6406856D01*
X44114087Y-6389572D01*
X44083375Y-6371840D01*
X43971030Y-6285634D01*
X43928411Y-6254670D01*
X43920940Y-6247199D01*
X43912151Y-6240455D01*
X43759544Y-6087848D01*
X43752799Y-6079058D01*
X43745330Y-6071589D01*
X43714369Y-6028975D01*
X43628159Y-5916624D01*
X43610425Y-5885909D01*
X43593144Y-5862123D01*
X43566485Y-5809803D01*
X43520257Y-5729733D01*
X43496656Y-5672755D01*
X43475599Y-5631428D01*
X43461264Y-5587309D01*
X43437666Y-5530338D01*
X43413740Y-5441045D01*
X43395590Y-5385185D01*
X43390989Y-5356138D01*
X43381809Y-5321877D01*
X43363325Y-5181477D01*
X43355086Y-5129458D01*
X43355086Y-5118893D01*
X43353640Y-5107910D01*
X43353640Y-4892089D01*
X43355086Y-4881105D01*
X43355086Y-4870542D01*
X43363324Y-4818527D01*
X43381809Y-4678122D01*
X43390989Y-4643858D01*
X43395590Y-4614815D01*
X43413738Y-4558959D01*
X43437666Y-4469661D01*
X43461265Y-4412685D01*
X43475599Y-4368572D01*
X43496654Y-4327248D01*
X43520257Y-4270266D01*
X43566489Y-4190188D01*
X43593144Y-4137877D01*
X43610423Y-4114094D01*
X43628159Y-4083375D01*
X43714383Y-3971005D01*
X43745330Y-3928411D01*
X43752796Y-3920944D01*
X43759544Y-3912151D01*
X43912151Y-3759544D01*
X43920944Y-3752796D01*
X43928411Y-3745330D01*
X43971005Y-3714383D01*
X44083375Y-3628159D01*
X44114094Y-3610423D01*
X44137877Y-3593144D01*
X44190188Y-3566489D01*
X44270266Y-3520257D01*
X44327248Y-3496654D01*
X44368572Y-3475599D01*
X44412685Y-3461265D01*
X44469661Y-3437666D01*
X44558959Y-3413738D01*
X44614815Y-3395590D01*
X44643858Y-3390989D01*
X44678122Y-3381809D01*
X44818524Y-3363324D01*
X44870542Y-3355086D01*
X44881106Y-3355086D01*
X44892090Y-3353640D01*
X45107910Y-3353640D01*
X45118894Y-3355086D01*
G37*
M02*
